<svg width="25" height="25" viewBox="0 0 69 66" fill="none" xmlns="http://www.w3.org/2000/svg">
    <path
            d="M33.9114 0.542123C31.9785 0.552668 30.0402 0.726531 28.1359 1.05908C27.3312 1.2001 26.2839 1.42412 26.1392 1.48633C26.0205 1.5371 25.9158 1.63949 25.8514 1.76626C25.8052 1.85643 25.7994 1.88006 25.792 1.99985C25.7861 2.11177 25.7883 2.14607 25.8128 2.21895C25.8993 2.48392 26.1216 2.64569 26.4035 2.6503C26.4861 2.65166 26.5799 2.63606 26.8656 2.57089C30.5168 1.75034 34.3692 1.55904 38.0958 2.01271C45.8385 2.95378 52.93 6.58303 58.1284 12.2621C60.9673 15.3645 63.1287 18.95 64.5137 22.8562C65.3753 25.2831 65.9196 27.7998 66.1468 30.4009C66.1696 30.6661 66.1876 30.8074 66.2057 30.8591C66.3454 31.2673 66.8989 31.4028 67.229 31.1078C67.3624 30.9887 67.4285 30.8462 67.4313 30.671C67.4335 30.5392 67.3866 30.01 67.3214 29.4397C66.4028 21.2978 62.3441 13.8083 55.9358 8.42967C53.5492 6.42712 50.9156 4.77897 48.0537 3.49869C43.6471 1.52898 38.798 0.514012 33.9114 0.542123Z"
            fill='#FFBB5C'
    />
    <path
            d="M24.2042 1.95674C23.9103 2.02704 23.4352 2.155 23.1015 2.25628C22.731 2.36751 22.1109 2.57743 22.0084 2.62583C21.9729 2.64238 21.9361 2.65627 21.928 2.65614C21.9049 2.65577 21.4384 2.84053 21.1244 2.97508C20.8242 3.10326 20.2273 3.38341 19.9088 3.54556C19.6027 3.70264 19.4786 3.82712 19.4279 4.02659C19.3918 4.16569 19.4145 4.34923 19.4829 4.47686C19.5908 4.67629 19.8528 4.81368 20.089 4.79514C20.1663 4.7885 20.3093 4.74998 20.3436 4.72551C20.3875 4.6946 20.8671 4.45733 21.1675 4.31729C21.5281 4.15056 21.8079 4.02995 22.1271 3.90339C22.2281 3.86419 22.3345 3.82113 22.3645 3.80713C22.3946 3.79312 22.4532 3.77168 22.4941 3.75917C22.5349 3.74666 22.6767 3.6989 22.8076 3.65229C23.2819 3.4861 23.8009 3.33118 24.3643 3.19017C24.5426 3.14565 24.7196 3.09452 24.7565 3.07667C24.9573 2.98244 25.0853 2.77764 25.0891 2.54577C25.092 2.37187 25.044 2.24062 24.9308 2.11754C24.759 1.93024 24.5294 1.88036 24.2042 1.95674Z"
            fill="#FFBB5C"
    />
    <path
            d="M18.1038 4.52282C18.0138 4.55166 17.6351 4.75631 17.1192 5.05228C14.0243 6.83074 11.2482 9.08486 8.89131 11.7333C7.40009 13.4101 6.07713 15.24 4.97377 17.1512C4.75194 17.5376 4.23604 18.5017 4.0454 18.8873C3.20434 20.5893 2.54781 22.2785 2.00661 24.1265C1.89028 24.5265 1.87679 24.6053 1.907 24.7468C1.94728 24.9359 2.06417 25.0815 2.24705 25.1701C2.33579 25.2137 2.36281 25.2195 2.47927 25.2253C2.68644 25.2379 2.84459 25.1812 2.97818 25.0516C3.05808 24.9725 3.11125 24.8706 3.15587 24.7119C3.61673 23.0524 4.30505 21.2425 5.09189 19.624C7.03013 15.643 9.88944 12.029 13.3791 9.15398C14.8451 7.94452 16.4419 6.85579 18.1079 5.92634C18.3445 5.79448 18.584 5.65871 18.6387 5.62666C18.8098 5.52403 18.9127 5.36231 18.9295 5.1636C18.9562 4.86226 18.7721 4.59701 18.4766 4.51575C18.3687 4.48499 18.2073 4.48894 18.1038 4.52282Z"
            fill="#FFBB5C"
    />
    <path
            d="M34.9659 5.67635C34.7951 5.6775 34.6351 5.68543 34.6133 5.69298C34.4116 5.75689 34.2683 5.8995 34.2124 6.09098C34.1435 6.32442 34.2594 6.61359 34.4689 6.72772C34.6033 6.80239 34.6303 6.80547 35.2656 6.82773C35.8278 6.84747 36.1704 6.86625 36.6333 6.90413C40.8253 7.24023 44.8528 8.52508 48.4716 10.6783C50.8287 12.0807 53.0123 13.8955 54.8567 15.984C56.7423 18.1181 58.2535 20.5227 59.3533 23.1381C60.4374 25.7176 61.0931 28.4706 61.2809 31.2371C61.3369 32.0432 61.3458 32.4058 61.3366 33.4651C61.3179 35.6879 61.2277 36.5641 60.8633 38.0433C60.779 38.3858 60.7686 38.4423 60.774 38.5294C60.7896 38.8196 61.0056 39.0366 61.3047 39.0612C61.547 39.0823 61.7698 38.9661 61.8747 38.7675C61.9503 38.6237 62.1748 37.6549 62.2845 36.9991C62.4317 36.1186 62.4774 35.4789 62.5053 33.8598C62.523 32.7795 62.5215 32.4553 62.4915 31.8038C62.3674 29.0344 61.8167 26.3279 60.8533 23.7385C59.3058 19.5766 56.7761 15.8876 53.3965 12.862C51.2205 10.913 48.6936 9.2903 45.9726 8.09403C43.5665 7.0347 41.0262 6.31315 38.4244 5.95168C37.847 5.87107 37.1299 5.79214 36.6994 5.76269C36.6087 5.75725 36.4897 5.73949 36.429 5.72268C36.3304 5.69735 36.2763 5.69383 35.7994 5.68339C35.5121 5.67738 35.1381 5.67389 34.9659 5.67635Z"
            fill="#FFBB5C"
    />
    <path
            d="M32.6683 5.69279C31.784 5.73103 30.5835 5.87611 30.38 5.9703C30.0878 6.10389 29.9695 6.45644 30.1193 6.74617C30.2008 6.903 30.3629 7.01503 30.5508 7.04446C30.636 7.05771 30.6726 7.05568 30.8846 7.02225C31.5247 6.92071 32.0256 6.8696 32.7445 6.83392C33.0416 6.81902 33.1096 6.803 33.2276 6.71795C33.4388 6.56723 33.5196 6.26414 33.4124 6.02914C33.3312 5.85386 33.1705 5.73131 32.98 5.69789C32.9313 5.68919 32.8826 5.68312 32.8718 5.68426C32.8609 5.68408 32.7687 5.68916 32.6683 5.69279Z"
            fill="#FFBB5C"
    />
    <path
            d="M28.1174 6.3352C25.5055 6.8354 23.1273 7.63461 20.8697 8.76918C18.388 10.0161 16.0647 11.6872 14.1604 13.5919C11.5258 16.2292 9.55038 19.2502 8.18966 22.7253C6.69881 26.5331 6.05512 30.8343 6.35725 34.9837C6.65484 39.079 7.92154 43.09 10.0479 46.667C11.7363 49.5068 13.9448 52.0362 16.5736 54.1416C18.9095 56.0115 21.5713 57.5125 24.4246 58.57C28.2965 60.0038 32.4264 60.5734 36.7483 60.2686C37.1567 60.2397 37.1948 60.2324 37.3109 60.1763C37.6142 60.0258 37.7078 59.6083 37.4995 59.3321C37.4014 59.2013 37.2199 59.1101 37.0546 59.1074C37.0126 59.1067 36.8078 59.1178 36.5988 59.1328C34.9827 59.2435 33.3146 59.2254 31.7813 59.0804C28.5755 58.7749 25.4762 57.9204 22.5793 56.542C19.2883 54.9753 16.3629 52.7702 13.9504 50.0385C11.9037 47.7213 10.2973 45.0871 9.18533 42.2251C8.21122 39.7159 7.64429 37.0882 7.49712 34.4028C7.4608 33.7235 7.45769 33.4995 7.47342 32.5377C7.49172 31.4192 7.52174 30.9097 7.62375 29.9771C8.24791 24.301 10.57 19.143 14.3185 15.1099C17.58 11.6 21.7804 9.10562 26.5119 7.87052C27.1448 7.70561 27.7271 7.57545 28.4109 7.44695C28.8881 7.35724 28.9481 7.33714 29.0597 7.22431C29.0942 7.1893 29.1414 7.12154 29.1665 7.0732C29.2044 6.9987 29.2116 6.9672 29.2175 6.86055C29.2232 6.75786 29.2197 6.7209 29.1965 6.64936C29.1397 6.47448 29.0144 6.34856 28.8392 6.28639C28.7044 6.23938 28.5728 6.24777 28.1174 6.3352Z"
            fill="#FFBB5C"
    />
    <path
            d="M33.8626 10.9822C30.6367 11.0744 27.5958 11.7863 24.7263 13.1243C23.6583 13.6221 22.6678 14.1805 21.6921 14.8339C21.3372 15.0719 21.2864 15.1106 21.2459 15.1824C21.2027 15.2595 21.1998 15.436 21.2405 15.5144C21.3168 15.658 21.4917 15.7347 21.655 15.6952C21.7054 15.6828 21.808 15.6199 22.0588 15.4514C24.9518 13.5049 28.2233 12.2828 31.6961 11.8494C33.6111 11.6119 35.614 11.6262 37.5411 11.8936C37.8494 11.9369 37.9091 11.9339 38.0104 11.8723C38.113 11.8094 38.1676 11.7075 38.1697 11.5745C38.172 11.4362 38.0887 11.307 37.9636 11.2535C37.8572 11.2083 36.9035 11.0965 36.0575 11.0299C35.7678 11.0081 34.1894 10.973 33.8626 10.9822Z"
            fill="#FFBB5C"
    />
    <path
            d="M42.8797 12.4818C42.7313 12.5254 42.6242 12.6871 42.6392 12.8481C42.6474 12.9313 42.7025 13.0416 42.7601 13.0847C42.7815 13.1021 42.9523 13.1801 43.1367 13.2595C44.5447 13.8558 45.892 14.5947 47.0995 15.4328C49.4153 17.0375 51.3828 19.057 52.9072 21.3946C54.7927 24.2838 55.92 27.5387 56.2166 30.95C56.3136 32.0625 56.3179 33.2921 56.2294 34.3897C55.9645 37.6587 54.957 40.7509 53.2342 43.5784C53.0447 43.8902 53.0251 43.9307 53.0224 44.0111C53.0176 44.2258 53.1992 44.3935 53.419 44.3747C53.5045 44.3669 53.6152 44.3146 53.6608 44.2574C53.6788 44.2353 53.7692 44.0945 53.8611 43.9444C55.6062 41.0817 56.646 37.9242 56.9377 34.5923C57.0179 33.6672 57.0364 32.5356 56.9868 31.5886C56.7573 27.3099 55.2652 23.2399 52.6559 19.7762C52.0244 18.9396 51.4404 18.2685 50.6523 17.4755C49.9829 16.8044 49.5195 16.3856 48.8346 15.8328C47.2025 14.5173 45.3797 13.4346 43.3848 12.5915C43.0793 12.4626 43.0023 12.4455 42.8797 12.4818Z"
            fill="#FFBB5C"
    />
    <path
            d="M34.1033 16.1532C33.771 16.1649 33.3355 16.192 33.2567 16.2052C33.1996 16.2161 33.1723 16.2302 33.1241 16.2742C33.058 16.3364 33.0423 16.3835 33.05 16.4983C33.0554 16.5801 33.1017 16.6494 33.1796 16.6928C33.2347 16.724 33.3377 16.7231 33.8369 16.693C34.2168 16.669 35.618 16.6866 36.0051 16.7206C36.6371 16.7758 37.1497 16.8408 37.689 16.9366C40.504 17.4347 43.1101 18.6146 45.3309 20.393C46.1028 21.0118 46.9433 21.8307 47.6028 22.6085C47.7597 22.7929 47.8 22.8199 47.9178 22.8218C48.1225 22.8239 48.2518 22.6217 48.1613 22.4397C48.1508 22.4185 48.0538 22.2983 47.9461 22.1726C46.7026 20.7212 45.1995 19.4737 43.5253 18.5041C41.1824 17.1466 38.5861 16.3636 35.8174 16.1799C35.5141 16.1604 34.4044 16.1423 34.1033 16.1532Z"
            fill="#FFBB5C"
    />
    <path
            d="M19.8092 16.0946C19.7357 16.1184 19.7233 16.1274 19.4486 16.3496C17.4584 17.955 15.8586 19.8067 14.6409 21.915C13.193 24.4215 12.3079 27.3233 12.0273 30.4774C11.9738 31.0933 11.9586 31.3605 11.9379 32.0441C11.8976 33.4311 11.9735 34.6737 12.1756 35.9882C12.265 36.5735 12.2778 36.6185 12.3767 36.7031C12.5491 36.8522 12.836 36.8002 12.9382 36.6016C12.9829 36.518 12.9805 36.4191 12.9274 36.0993C12.609 34.1886 12.5637 32.1492 12.7943 30.0683C13.2796 25.6708 14.9359 21.9409 17.7532 18.9087C18.4168 18.1947 19.2301 17.4424 20.0362 16.7993C20.2464 16.6315 20.2783 16.5832 20.2808 16.4317C20.2834 16.2749 20.2 16.1537 20.0518 16.0972C19.9939 16.0752 19.8706 16.0745 19.8092 16.0946Z"
            fill="#FFBB5C"
    />
    <path
            d="M31.1836 16.502C30.4911 16.5777 30.0495 16.6429 29.9894 16.6749C29.8088 16.7734 29.8192 17.0543 30.0075 17.1404C30.0734 17.1704 30.1371 17.1741 30.2716 17.1513C30.4537 17.12 30.8218 17.0733 31.1504 17.0392C31.4979 17.0027 31.5225 16.9952 31.5957 16.9107C31.6357 16.8639 31.6386 16.8521 31.6402 16.7586C31.6416 16.6703 31.6365 16.6491 31.6061 16.6025C31.5387 16.4986 31.4334 16.4745 31.1836 16.502Z"
            fill="#FFBB5C"
    />
    <path
            d="M28.2489 17.3514C27.9653 17.4496 27.0313 17.8731 26.5775 18.1108C25.5563 18.6436 24.6014 19.2671 23.7059 19.9865C23.0577 20.507 22.3336 21.1883 21.7774 21.8012C20.5103 23.1971 19.4882 24.7815 18.7666 26.4722C18.6834 26.6699 18.6684 26.7592 18.709 26.8455C18.7614 26.9571 18.8906 27.0132 19.0239 26.9825C19.1409 26.9554 19.17 26.9163 19.3066 26.601C20.0517 24.8856 21.1093 23.2886 22.418 21.9105C22.7628 21.5471 23.4359 20.9151 23.818 20.5945C25.1427 19.4868 26.7209 18.5388 28.2858 17.9121C28.5136 17.821 28.5451 17.8017 28.5842 17.7312C28.6485 17.6136 28.6118 17.4536 28.5059 17.3833C28.4428 17.3414 28.3211 17.3263 28.2489 17.3514Z"
            fill="#FFBB5C"
    />
    <path
            d="M34.3195 21.1643C32.4294 21.2085 30.5741 21.6947 28.9196 22.5795C28.5532 22.7752 28.5107 22.8021 28.4743 22.8727C28.4352 22.9432 28.433 22.9933 28.4658 23.065C28.5037 23.1486 28.5614 23.1838 28.6684 23.1856C28.7525 23.1869 28.7634 23.1832 28.8797 23.1152C29.4271 22.7947 30.1699 22.4577 30.8255 22.2325C31.8996 21.864 33.0048 21.658 34.1699 21.6086C34.4602 21.5962 35.1512 21.6075 35.4477 21.6295C37.1588 21.7576 38.7774 22.2361 40.2428 23.0481C42.1206 24.0883 43.6727 25.6489 44.6804 27.509C44.7423 27.6246 44.8029 27.7297 44.8135 27.7418C44.8495 27.7819 44.9439 27.8111 45.0131 27.803C45.1259 27.7877 45.1977 27.7046 45.1996 27.586C45.2006 27.528 45.1903 27.4962 45.1337 27.3899C44.7708 26.7066 44.3051 26.0111 43.8266 25.4366C43.3614 24.8782 42.7652 24.2873 42.2154 23.8394C40.022 22.0483 37.2102 21.0969 34.3195 21.1643Z"
            fill="#FFBB5C"
    />
    <path
            d="M48.9685 23.7997C48.8665 23.8231 48.806 23.8748 48.7719 23.9678C48.7308 24.0805 48.7489 24.1321 48.9458 24.4398C49.4295 25.1949 49.8946 26.0959 50.2464 26.9635C51.0829 29.0172 51.4752 31.2203 51.401 33.4343C51.3844 33.9506 51.3736 34.1112 51.3251 34.5954L51.2976 34.8677L51.3316 34.9381C51.3828 35.0431 51.4392 35.0756 51.5693 35.0777C51.698 35.0798 51.7568 35.0479 51.8085 34.9499C51.8436 34.8806 51.8621 34.7386 51.9125 34.1477C51.9409 33.8174 51.9611 32.5817 51.9435 32.2506C51.8602 30.6349 51.6204 29.3001 51.1533 27.8626C50.7236 26.5417 50.1485 25.3213 49.3928 24.1242C49.3176 24.0031 49.2448 23.8938 49.2329 23.8791C49.1823 23.8216 49.0501 23.7813 48.9685 23.7997Z"
            fill="#FFBB5C"
    />
    <path
            d="M27.1519 23.7617C27.0838 23.779 26.7732 24.0401 26.3919 24.3989C25.4779 25.2603 24.7508 26.2064 24.1637 27.2958C23.4663 28.589 23.0401 29.9486 22.8768 31.3995C22.7976 32.0992 22.7882 32.9188 22.8522 33.6459C23.0295 35.6518 23.7698 37.6209 24.9733 39.2812C26.0774 40.8029 27.5896 42.0729 29.2878 42.9046C29.6777 43.0954 29.7437 43.1216 29.825 43.1229C29.9537 43.125 30.0433 43.0382 30.0454 42.9077C30.0473 42.7918 30.0087 42.749 29.819 42.6629C28.0715 41.8621 26.5651 40.6514 25.4338 39.1359C24.3741 37.7191 23.6732 36.0683 23.3978 34.3454C23.1962 33.0849 23.2165 31.8412 23.4592 30.592C23.8174 28.7463 24.6534 27.0258 25.897 25.5715C26.2949 25.1063 26.8101 24.6021 27.2634 24.2326C27.4448 24.084 27.4827 23.999 27.4224 23.8755C27.3779 23.7799 27.2662 23.7332 27.1519 23.7617Z"
            fill="#FFBB5C"
    />
    <path
            d="M34.3033 24.6417C32.0075 24.7095 29.8893 25.6896 28.3884 27.3781C27.5185 28.3562 26.8813 29.6095 26.6057 30.8807C26.4986 31.3783 26.4548 31.74 26.4365 32.2747C26.4176 32.8543 26.4373 33.2236 26.5181 33.752C26.8168 35.7059 27.8745 37.5009 29.4562 38.7392C31.5559 40.3825 34.3679 40.9056 36.9503 40.1334C37.6436 39.926 38.3331 39.6171 38.9301 39.246C40.1487 38.4884 41.117 37.4632 41.7797 36.2261C42.1614 35.5129 42.4113 34.8132 42.5667 34.0146C42.5874 33.9108 42.6026 33.8122 42.6028 33.7977C42.6017 33.7832 42.596 33.8003 42.5886 33.837C42.4737 34.4005 42.3831 34.7166 42.2119 35.1552C41.9035 35.9448 41.4635 36.6611 40.8808 37.321C40.7123 37.512 40.1617 38.0301 39.9571 38.1914C38.0761 39.6643 35.6284 40.1579 33.3142 39.5297C31.556 39.0542 30.0102 37.9365 29.0265 36.4286C28.0321 34.9048 27.6594 33.0854 27.9809 31.3249C28.164 30.3224 28.5688 29.3578 29.1571 28.524C29.4652 28.0876 29.7359 27.7758 30.1365 27.4002C30.738 26.8354 31.3288 26.4313 32.0568 26.0874C32.416 25.918 32.6998 25.8067 33.0662 25.6941C33.8045 25.469 34.4676 25.3665 35.2471 25.3595C36.1051 25.3525 36.9351 25.4873 37.7478 25.7654C38.1063 25.8886 38.3338 25.9846 38.6901 26.1643C39.6163 26.6315 40.3963 27.2504 41.0476 28.0359C41.8332 28.9792 42.3648 30.1172 42.5903 31.3333C42.6115 31.4417 42.6255 31.4986 42.6221 31.459C42.6117 31.3507 42.5355 30.9528 42.4771 30.712C42.4097 30.4382 42.2472 29.9347 42.1377 29.6654C41.3506 27.7378 39.8148 26.1761 37.8729 25.3313C36.7613 24.8466 35.5128 24.6061 34.3033 24.6417Z"
            fill="#FFBB5C"
    />
    <path
            d="M1.93624 25.7765C1.76867 25.8291 1.62302 25.9506 1.55976 26.0892C1.5105 26.2004 1.30178 26.9455 1.19556 27.3905C1.07622 27.892 0.980119 28.4636 0.931192 28.9689C0.897262 29.303 0.866074 29.9667 0.879427 30.0618C0.916862 30.3418 1.12088 30.5467 1.40749 30.5909C1.6738 30.6335 1.94294 30.5035 2.06186 30.2762C2.12759 30.152 2.13528 30.0968 2.15142 29.6899C2.17758 29.0024 2.26677 28.3555 2.42976 27.6716C2.48509 27.438 2.64377 26.8515 2.70673 26.6483C2.77976 26.4097 2.77944 26.2634 2.70615 26.104C2.66297 26.0098 2.55517 25.8881 2.46925 25.8379C2.31756 25.7485 2.10517 25.7239 1.93624 25.7765Z"
            fill="#FFBB5C"
    />
    <path
            d="M35.0426 27.9166C35.0168 27.9188 34.934 27.9267 34.8593 27.9334C32.7149 28.1157 30.9435 29.6826 30.541 31.7515C30.4803 32.0681 30.4657 32.2102 30.461 32.5844C30.4546 32.977 30.4692 33.1604 30.534 33.508C30.7508 34.6673 31.3994 35.7018 32.3555 36.4133C33.0183 36.9064 33.7912 37.2208 34.6444 37.3442C34.8715 37.3769 35.3862 37.3972 35.6264 37.3813C36.8394 37.3036 37.9314 36.8287 38.7729 36.0135C39.5138 35.2956 39.9685 34.4293 40.1453 33.3951C40.1857 33.1678 40.2087 32.5857 40.1899 32.3271C40.1065 31.2109 39.6248 30.1673 38.8207 29.3608C38.058 28.5945 37.1102 28.1244 35.9907 27.9559C35.8433 27.9337 35.1566 27.9053 35.0426 27.9166ZM35.5827 28.7016C36.5199 28.8316 37.3498 29.2181 38.0282 29.8394C39.0978 30.8189 39.5973 32.2647 39.3533 33.6734C39.1183 35.0295 38.2443 36.1815 36.9707 36.8129C36.3312 37.1293 35.5438 37.2917 34.8152 37.2573C33.6722 37.2031 32.6239 36.7405 31.8278 35.9408C31.1305 35.2401 30.711 34.3688 30.593 33.3772C30.5657 33.1396 30.5744 32.6126 30.6108 32.376C30.7368 31.5465 31.0602 30.8349 31.5978 30.2046C31.7401 30.0396 32.0403 29.7506 32.2091 29.619C32.7281 29.2137 33.3455 28.9207 33.9849 28.777C34.2488 28.7167 34.4593 28.6885 34.827 28.6642C34.9505 28.6557 35.4204 28.6792 35.5827 28.7016Z"
            fill="#FFBB5C"
    />
    <path
            d="M34.6952 31.3385C34.5961 31.3487 34.3771 31.3952 34.2885 31.4241C33.8811 31.5584 33.5238 31.857 33.3349 32.2203C33.2048 32.4685 33.1439 32.7113 33.139 33.0104C33.1326 33.3199 33.1844 33.5474 33.3196 33.8198C33.6253 34.4349 34.2413 34.8087 34.9233 34.7948C35.0209 34.7925 35.1457 34.7827 35.2015 34.7717C35.9384 34.6296 36.5279 34.0528 36.6685 33.333C36.6967 33.1832 36.7011 32.9131 36.6778 32.7638C36.562 32.0543 35.9615 31.4818 35.2031 31.3574C35.0869 31.3383 34.7997 31.327 34.6952 31.3385Z"
            fill="#FFBB5C"
    />
    <path
            d="M18.1847 28.1561C18.0781 28.2084 18.0585 28.2476 17.9844 28.5521C17.8348 29.165 17.7384 29.6721 17.6554 30.2677C17.62 30.5281 17.6271 30.5888 17.7059 30.6652C17.7619 30.7202 17.8077 30.7367 17.9012 30.7382C17.992 30.7397 18.0561 30.7131 18.11 30.6521C18.1583 30.5975 18.1642 30.5712 18.2193 30.1834C18.2882 29.6969 18.4064 29.1006 18.5311 28.6071C18.5832 28.4037 18.5855 28.3458 18.5488 28.2714C18.5251 28.2262 18.4637 28.1685 18.4179 28.152C18.3613 28.13 18.2325 28.1318 18.1847 28.1561Z"
            fill="#FFBB5C"
    />
    <path
            d="M45.5161 28.9524C45.4915 28.9692 45.4597 29.0029 45.4458 29.0277C45.4179 29.076 45.4093 29.1839 45.429 29.2225C45.4553 29.2717 45.617 29.8304 45.6831 30.099C45.8418 30.7513 45.9369 31.4012 45.9804 32.1399C45.9975 32.4156 45.9841 33.239 45.9591 33.5232C45.8531 34.6996 45.5987 35.751 45.1711 36.7877C44.4415 38.5495 43.2574 40.0943 41.7157 41.2959C40.94 41.9 39.9891 42.4497 39.068 42.8261C38.9398 42.878 38.8236 42.9354 38.7989 42.9561C38.6765 43.0661 38.7299 43.2804 38.8918 43.3226C38.9741 43.3451 39.0014 43.3376 39.2347 43.2413C40.3618 42.7774 41.3487 42.1874 42.3007 41.4083C42.5604 41.1951 43.155 40.6356 43.3854 40.3876C44.3733 39.3206 45.1274 38.1324 45.649 36.8192C46.6045 34.418 46.7013 31.7313 45.9217 29.2661C45.8495 29.037 45.8272 28.9918 45.7695 28.9553C45.7038 28.9147 45.5777 28.9139 45.5161 28.9524Z"
            fill="#FFBB5C"
    />
    <path
            d="M42.6296 31.5775C42.6292 31.6027 42.6316 31.6134 42.6358 31.6002C42.6386 31.5882 42.6389 31.567 42.6365 31.5537C42.6328 31.5417 42.63 31.5522 42.6296 31.5775Z"
            fill="#FFBB5C"
    />
    <path
            d="M42.6417 31.6699C42.6413 31.6951 42.6437 31.7058 42.6478 31.6926C42.6506 31.6807 42.651 31.6594 42.6486 31.6461C42.6449 31.6341 42.6421 31.6447 42.6417 31.6699Z"
            fill="#FFBB5C"
    />
    <path
            d="M42.6549 31.769C42.6545 31.7982 42.6569 31.8088 42.6598 31.7916C42.6626 31.7757 42.663 31.7518 42.6606 31.7385C42.6569 31.7265 42.6541 31.7397 42.6549 31.769Z"
            fill="#FFBB5C"
    />
    <path
            d="M42.6653 31.8811C42.6649 31.9064 42.6673 31.917 42.6715 31.9038C42.6743 31.8919 42.6746 31.8707 42.6722 31.8574C42.6685 31.8453 42.6657 31.8559 42.6653 31.8811Z"
            fill="#FFBB5C"
    />
    <path
            d="M17.6888 31.5413C17.618 31.5599 17.5521 31.6115 17.5226 31.6743C17.4693 31.7867 17.44 32.7469 17.4669 33.5051C17.5963 37.114 18.9049 40.5511 21.2278 43.3776C21.5787 43.8037 21.8649 44.118 22.3196 44.5762C22.773 45.0303 23.0668 45.3013 23.4839 45.6494C24.8371 46.7785 26.3631 47.6983 27.9989 48.3708C29.741 49.0871 31.6192 49.5211 33.5309 49.6486C33.6825 49.659 33.7205 49.657 33.7709 49.6393C33.9304 49.5826 33.9933 49.386 33.8967 49.2447C33.8331 49.1501 33.79 49.1376 33.461 49.1137C28.7269 48.7714 24.3918 46.4919 21.4663 42.8056C19.9524 40.8977 18.8882 38.6717 18.3773 36.3466C18.0733 34.9633 17.9476 33.534 18.0155 32.2015C18.0314 31.8908 18.0338 31.7472 18.0235 31.7115C18.0044 31.64 17.9243 31.5636 17.8474 31.5439C17.7758 31.5242 17.7542 31.5239 17.6888 31.5413Z"
            fill="#FFBB5C"
    />
    <path
            d="M42.678 32.0197C42.6775 32.0489 42.6799 32.0596 42.6828 32.0424C42.6857 32.0265 42.686 32.0026 42.6837 31.9893C42.6799 31.9772 42.6771 31.9905 42.678 32.0197Z"
            fill="#FFBB5C"
    />
    <path
            d="M66.7036 32.4895C66.4625 32.5633 66.2997 32.7385 66.2539 32.971C66.2405 33.0419 66.2397 33.0907 66.2527 33.2082C66.274 33.3983 66.2648 33.9608 66.2301 34.5862C66.2107 34.9443 66.2084 35.0866 66.2183 35.1461C66.248 35.3192 66.3751 35.5031 66.5228 35.5846C66.6505 35.6539 66.8384 35.682 66.9826 35.6514C67.1933 35.6088 67.3859 35.4367 67.4516 35.2322C67.4716 35.1705 67.4967 34.7111 67.5211 33.9669C67.5453 33.2359 67.5265 32.9707 67.4345 32.7979C67.3754 32.6849 67.2846 32.5991 67.1623 32.5378C67.0655 32.4888 67.0533 32.486 66.9098 32.4797C66.8095 32.4754 66.739 32.4795 66.7036 32.4895Z"
            fill="#FFBB5C"
    />
    <path
            d="M42.6874 32.1846C42.687 32.2098 42.6895 32.2205 42.6936 32.2073C42.6964 32.1954 42.6967 32.1741 42.6943 32.1608C42.6906 32.1488 42.6879 32.1594 42.6874 32.1846Z"
            fill="#FFBB5C"
    />
    <path
            d="M1.23306 31.7254C1.02078 31.7772 0.859786 31.9248 0.791384 32.1293C0.765744 32.2053 0.762279 32.2514 0.755964 32.6374C0.745747 33.2618 0.761014 33.9855 0.798305 34.6885C0.990673 38.3393 1.80804 41.8962 3.23278 45.2773C3.57327 46.088 4.09215 47.1784 4.48538 47.9136C5.94513 50.6455 7.78933 53.1584 9.94373 55.3509C10.321 55.7353 10.3652 55.7689 10.5448 55.8088C10.719 55.8472 10.9121 55.8108 11.056 55.7117C11.1492 55.646 11.1976 55.5901 11.2564 55.4725C11.2998 55.3889 11.3014 55.3784 11.3039 55.2203C11.3066 55.0595 11.3053 55.0529 11.2608 54.956C11.219 54.8644 11.1884 54.8283 10.8751 54.5082C10.4779 54.1011 10.2447 53.8522 9.89734 53.4644C5.52875 48.5922 2.81765 42.4847 2.17186 36.0617C2.06346 34.9833 2.01837 34.0114 2.01762 32.7318L2.01729 32.1717L1.96884 32.0682C1.84049 31.7946 1.53381 31.6512 1.23306 31.7254Z"
            fill="#FFBB5C"
    />
    <path
            d="M42.6967 32.4483C42.6963 32.4735 42.6987 32.4842 42.7029 32.471C42.7057 32.4591 42.706 32.4378 42.7036 32.4245C42.6999 32.4125 42.6971 32.4231 42.6967 32.4483Z"
            fill="#FFBB5C"
    />
    <path
            d="M42.6885 32.9489C42.6881 32.9742 42.6905 32.9848 42.6946 32.9716C42.6974 32.9597 42.6978 32.9385 42.6954 32.9251C42.6917 32.9131 42.6889 32.9237 42.6885 32.9489Z"
            fill="#FFBB5C"
    />
    <path
            d="M42.6721 33.2056C42.6716 33.2348 42.674 33.2455 42.6769 33.2283C42.6798 33.2124 42.6802 33.1885 42.6778 33.1752C42.6741 33.1632 42.6713 33.1764 42.6721 33.2056Z"
            fill="#FFBB5C"
    />
    <path
            d="M42.6545 33.3701C42.6541 33.3953 42.6565 33.406 42.6607 33.3928C42.6635 33.3808 42.6638 33.3596 42.6614 33.3463C42.6577 33.3343 42.6549 33.3449 42.6545 33.3701Z"
            fill="#FFBB5C"
    />
    <path
            d="M42.64 33.5082C42.6396 33.5374 42.642 33.5481 42.6449 33.5308C42.6477 33.515 42.6481 33.4911 42.6458 33.4777C42.642 33.4657 42.6392 33.479 42.64 33.5082Z"
            fill="#FFBB5C"
    />
    <path
            d="M42.6233 33.6199C42.6229 33.6452 42.6253 33.6558 42.6294 33.6426C42.6322 33.6307 42.6326 33.6095 42.6302 33.5962C42.6265 33.5841 42.6237 33.5947 42.6233 33.6199Z"
            fill="#FFBB5C"
    />
    <path
            d="M42.608 33.7251C42.6076 33.7503 42.6101 33.761 42.6142 33.7478C42.617 33.7359 42.6173 33.7146 42.6149 33.7013C42.6112 33.6893 42.6085 33.6999 42.608 33.7251Z"
            fill="#FFBB5C"
    />
    <path
            d="M66.0862 38.8285C65.9842 38.8505 65.8624 38.9171 65.7839 38.9948C65.6599 39.1167 65.6387 39.173 65.5231 39.6943C64.5444 44.0928 62.5678 48.2603 59.7478 51.875C58.3911 53.6134 56.8525 55.2064 55.125 56.658C54.8818 56.8636 54.8556 56.8922 54.7925 57.0189C54.7392 57.1288 54.7267 57.3117 54.7652 57.4428C54.8513 57.7328 55.1316 57.9127 55.4453 57.8796C55.6136 57.8613 55.682 57.8255 55.9101 57.6368C56.7976 56.9015 57.8617 55.9029 58.7043 55.014C62.3991 51.1158 65.0681 46.3812 66.4306 41.3063C66.5965 40.6883 66.8047 39.8127 66.8526 39.5368C66.9066 39.2188 66.7162 38.9257 66.3991 38.8375C66.3208 38.8165 66.1678 38.8114 66.0862 38.8285Z"
            fill="#FFBB5C"
    />
    <path
            d="M50.4067 38.7841C50.3115 38.8076 50.2575 38.8726 50.1827 39.0545C49.6931 40.2352 48.9746 41.4845 48.1781 42.5336C47.588 43.3134 47.0676 43.8886 46.3119 44.5997C45.6016 45.2668 44.9699 45.7717 44.212 46.2798C41.6398 48.0049 38.6895 48.9805 35.5682 49.139C35.381 49.1491 35.2819 49.1593 35.2545 49.1734C35.0578 49.2677 35.0572 49.5563 35.2549 49.6504C35.2952 49.6709 35.3318 49.6728 35.5134 49.6692C35.9026 49.6597 36.5758 49.6009 37.1219 49.5268C39.2165 49.2448 41.2836 48.5683 43.138 47.5603C44.8201 46.6442 46.3371 45.4593 47.6081 44.0701C48.8668 42.6912 49.8637 41.1538 50.6143 39.4306C50.7298 39.165 50.7497 39.1126 50.7508 39.0441C50.7532 38.9808 50.7469 38.9531 50.7178 38.9052C50.6598 38.8054 50.5278 38.7531 50.4067 38.7841Z"
            fill="#FFBB5C"
    />
    <path
            d="M60.2709 40.6178C60.1142 40.6666 60.0016 40.7583 59.9316 40.8929C59.905 40.9452 59.8534 41.1156 59.7797 41.3925C59.5123 42.4107 59.3606 42.8181 59.01 43.4554C58.922 43.6174 58.8242 43.795 58.7935 43.8512C58.7418 43.9452 58.736 43.9649 58.7302 44.0755C58.7174 44.2742 58.7668 44.4029 58.9029 44.5329C59.1258 44.7448 59.4986 44.7443 59.7189 44.5318C59.796 44.4579 59.9297 44.2387 60.127 43.8624C60.3424 43.4495 60.4904 43.1054 60.6343 42.6781C60.7112 42.4475 60.995 41.4242 61.026 41.2653C61.0676 41.0433 60.9658 40.8057 60.7767 40.6853C60.6358 40.5961 60.4275 40.5676 60.2709 40.6178Z"
            fill="#FFBB5C"
    />
    <path
            d="M38.0523 43.1929C37.8262 43.2604 37.4695 43.356 37.2695 43.4028C37.1471 43.4311 37.03 43.4648 37.0094 43.4789C36.96 43.5124 36.9278 43.5804 36.9265 43.6568C36.9252 43.7385 36.9607 43.805 37.0265 43.8443C37.0707 43.8713 37.091 43.8743 37.167 43.8703C37.3176 43.8609 38.1969 43.6302 38.2954 43.5738C38.4336 43.4957 38.4223 43.2728 38.2758 43.1979C38.2032 43.1611 38.1599 43.1604 38.0523 43.1929Z"
            fill="#FFBB5C"
    />
    <path
            d="M31.2324 43.2566C31.1519 43.2895 31.0905 43.4006 31.1066 43.4891C31.1166 43.5446 31.1561 43.6125 31.1964 43.6382C31.2741 43.6882 31.9464 43.8534 32.4397 43.9432C33.1167 44.0649 33.5307 44.1073 34.2637 44.1272C34.876 44.1451 35.177 44.1382 35.6479 44.0998C36.1596 44.058 36.1991 44.0482 36.2684 43.9531C36.3363 43.8593 36.2969 43.7019 36.1921 43.6474C36.1276 43.6134 36.1032 43.6143 35.7 43.6526C35.2887 43.6906 35.1205 43.6984 34.6421 43.6985C33.5795 43.6982 32.6192 43.5745 31.6084 43.3036C31.3602 43.2363 31.3006 43.23 31.2324 43.2566Z"
            fill="#FFBB5C"
    />
    <path
            d="M15.4856 43.7646C15.3219 43.8305 15.2323 44.0029 15.2729 44.1762C15.2842 44.2278 15.3396 44.3236 15.497 44.5607C16.1319 45.5212 16.8501 46.4396 17.6583 47.3239C17.918 47.6075 18.7462 48.4315 19.0346 48.6945C20.3942 49.9291 21.7981 50.9365 23.3549 51.7961C26.1019 53.3117 29.1834 54.2569 32.3352 54.5496C32.8238 54.5945 33.096 54.6082 33.1641 54.5909C33.3042 54.5563 33.4023 54.4406 33.4156 54.2919C33.4289 54.1419 33.3699 54.0197 33.2517 53.9558C33.1711 53.911 33.1495 53.908 32.8489 53.886C29.1356 53.6144 25.523 52.4101 22.4288 50.4105C20.7309 49.314 19.1659 47.9587 17.8395 46.44C17.1783 45.682 16.5759 44.8894 16.0523 44.0901C15.8896 43.8411 15.8697 43.8183 15.7809 43.7773C15.7083 43.7432 15.5539 43.7367 15.4856 43.7646Z"
            fill="#FFBB5C"
    />
    <path
            d="M57.7883 46.3912C57.6848 46.4159 57.5796 46.4722 57.5093 46.5395C57.468 46.5797 57.3875 46.697 57.2733 46.8862C55.0456 50.5791 51.926 53.6183 48.1885 55.7341C47.2104 56.2874 46.067 56.8353 45.0274 57.2479C44.8951 57.3011 44.8418 57.3306 44.7813 57.3836C44.5269 57.6048 44.5179 57.9881 44.7595 58.2174C44.9063 58.3568 45.1114 58.4129 45.3059 58.3673C45.5277 58.3143 46.8287 57.7439 47.5503 57.3828C49.5345 56.3887 51.2446 55.2557 52.9435 53.8089C53.2953 53.5089 54.2754 52.5893 54.6021 52.252C56.0538 50.755 57.2919 49.1439 58.351 47.3716C58.4736 47.1681 58.5019 47.0908 58.5041 46.9577C58.5092 46.6455 58.2801 46.4032 57.9578 46.3821C57.8996 46.3786 57.8263 46.3826 57.7883 46.3912Z"
            fill="#FFBB5C"
    />
    <path
            d="M48.734 48.8207C48.7026 48.8347 48.5613 48.9391 48.4184 49.054C46.4501 50.648 44.1878 51.9011 41.7875 52.7289C40.3985 53.2083 38.8774 53.5669 37.4594 53.7506C37.2339 53.7798 37.1578 53.7944 37.0991 53.8211C36.9297 53.8987 36.8585 54.1124 36.9424 54.2837C36.9818 54.3634 37.0164 54.3983 37.0957 54.4404C37.1884 54.4894 37.2928 54.4884 37.6786 54.4341C41.7623 53.8579 45.4677 52.2884 48.6586 49.7814C49.2188 49.3412 49.2285 49.3309 49.2314 49.153C49.2329 49.0608 49.2278 49.0383 49.195 48.9771C49.1528 48.9013 49.09 48.8463 49.0146 48.8187C48.9418 48.7911 48.7995 48.7928 48.734 48.8207Z"
            fill="#FFBB5C"
    />
    <path
            d="M34.442 53.9345C34.3494 53.9646 34.2557 54.0605 34.2257 54.1536C34.1728 54.3214 34.2471 54.5032 34.3977 54.5768C34.477 54.615 34.5934 54.6248 35.161 54.6433L35.6961 54.6613L35.767 54.6322C35.9048 54.5777 35.9812 54.4643 35.9837 54.3128C35.986 54.1706 35.932 54.0761 35.8098 54.003L35.7481 53.9664L35.3756 53.9524C35.1711 53.9437 34.8907 53.9313 34.7526 53.925C34.5426 53.9163 34.4925 53.9168 34.442 53.9345Z"
            fill="#FFBB5C"
    />
    <path
            d="M12.0597 55.8349C11.9713 55.8479 11.8486 55.896 11.7759 55.9449C11.6827 56.0105 11.6344 56.0664 11.5755 56.1841C11.5321 56.2677 11.5306 56.2782 11.528 56.4376L11.5253 56.6023L11.5764 56.7072C11.6341 56.8255 11.6714 56.8643 12.064 57.2278C14.1361 59.1449 16.4649 60.6207 19.167 61.731C19.4995 61.8669 19.5049 61.8683 19.6376 61.877C19.8542 61.8898 20.0219 61.8306 20.1529 61.6931C20.3708 61.4647 20.3717 61.0812 20.1558 60.855C20.0718 60.7667 20.0208 60.7395 19.7057 60.6118C17.0909 59.5543 14.7678 58.0627 12.7257 56.1304C12.615 56.0245 12.508 55.9358 12.4623 55.9113C12.3468 55.8488 12.1819 55.8171 12.0597 55.8349Z"
            fill="#FFBB5C"
    />
    <path
            d="M53.6982 57.7983C53.5378 57.8234 53.4708 57.8592 53.2318 58.0556C52.1067 58.9767 50.8537 59.7601 49.4906 60.3967C49.1833 60.5392 49.1134 60.5869 49.0371 60.6989C48.9107 60.884 48.8948 61.1104 48.9931 61.3163C49.0534 61.4411 49.1427 61.5296 49.2718 61.5949C49.3646 61.6412 49.3861 61.6469 49.5121 61.6542C49.6177 61.6599 49.672 61.6568 49.7305 61.642C49.8217 61.6171 50.4117 61.3408 50.7904 61.144C51.9263 60.5551 52.9991 59.8545 53.9756 59.0653C54.2599 58.8354 54.3013 58.7939 54.3559 58.688C54.5254 58.3521 54.3586 57.9422 54.0053 57.8297C53.9069 57.7978 53.7838 57.7852 53.6982 57.7983Z"
            fill="#FFBB5C"
    />
    <path
            d="M42.5666 58.0471C42.5516 58.0508 42.4016 58.105 42.2326 58.1668C41.5521 58.4179 41.1113 58.5227 40.4501 58.5897C40.3565 58.5987 40.0334 58.625 39.7308 58.6491C39.302 58.6829 39.1648 58.6978 39.1049 58.7179C38.8663 58.801 38.7221 58.9989 38.7181 59.2466C38.7134 59.5311 38.9008 59.7596 39.1845 59.8156C39.2588 59.83 39.332 59.8272 39.7188 59.798C40.6335 59.7273 40.977 59.6894 41.3481 59.6191C41.752 59.5413 42.1592 59.4228 42.6623 59.236C42.976 59.1186 43.0224 59.0969 43.1064 59.0166C43.3941 58.7472 43.3179 58.2702 42.9588 58.097C42.8741 58.0561 42.8512 58.0504 42.7292 58.0458C42.6548 58.042 42.5816 58.0434 42.5666 58.0471Z"
            fill="#FFBB5C"
    />
    <path
            d="M47.5809 61.3933C47.5509 61.402 47.3913 61.468 47.2261 61.539C42.2819 63.6865 36.8975 64.567 31.4413 64.1206C28.2077 63.8569 25.1332 63.1424 22.0802 61.9447C21.7974 61.8333 21.7138 61.8056 21.6353 61.799C21.136 61.7487 20.7849 62.2477 21.0068 62.6901C21.0488 62.7738 21.1326 62.8674 21.2104 62.9175C21.2466 62.9405 21.4485 63.0281 21.6613 63.1106C24.7183 64.3111 27.9116 65.0552 31.2046 65.3357C32.1683 65.4187 32.8414 65.4481 33.9201 65.4566C34.7698 65.4626 35.0179 65.46 35.7164 65.4306C39.3852 65.2758 43.0231 64.521 46.4263 63.2075C46.9691 62.9976 47.7183 62.6883 48.0065 62.5533C48.2646 62.4324 48.3829 62.2419 48.3754 61.9598C48.3731 61.8477 48.3668 61.8173 48.3315 61.739C48.2255 61.5119 48.0148 61.3806 47.7533 61.379C47.6882 61.3779 47.6109 61.3846 47.5809 61.3933Z"
            fill="#FFBB5C"
    />
</svg>